<?xml version="1.0" standalone="no"?>
<!DOCTYPE svg PUBLIC "-//W3C//DTD SVG 20010904//EN"
 "http://www.w3.org/TR/2001/REC-SVG-20010904/DTD/svg10.dtd">
<svg version="1.0" xmlns="http://www.w3.org/2000/svg"
 width="241.000000pt" height="241.000000pt" viewBox="0 0 241.000000 241.000000"
 preserveAspectRatio="xMidYMid meet">
<metadata>
Created by potrace 1.14, written by Peter Selinger 2001-2017
</metadata>
<g transform="translate(0.000000,241.000000) scale(0.100000,-0.100000)"
fill="#000000" stroke="none">
<path d="M1160 2243 c-8 -3 -22 -7 -30 -10 -8 -3 -22 -7 -30 -9 -24 -4 -95
-88 -106 -126 -17 -55 -9 -123 21 -174 15 -25 32 -47 39 -50 10 -4 14 -37 15
-127 0 -67 -3 -126 -7 -132 -10 -14 -42 -15 -43 -1 0 6 -3 27 -5 46 -3 19 -7
55 -9 80 -1 25 -4 45 -5 45 -1 0 -3 18 -6 40 -8 75 -15 104 -27 112 -7 4 -174
8 -372 9 -403 1 -390 3 -381 -70 10 -71 60 -135 131 -167 38 -17 53 -31 43
-41 -4 -4 41 -67 62 -89 19 -20 96 -60 103 -53 2 3 8 -7 11 -22 23 -89 112
-153 215 -156 29 -1 28 -3 -24 -29 -67 -34 -101 -68 -132 -136 -40 -88 -31
-187 27 -273 16 -25 30 -42 30 -37 0 4 10 -3 23 -15 17 -18 22 -36 24 -78 1
-30 3 -62 5 -72 8 -37 54 -111 87 -141 34 -29 36 -35 37 -92 2 -101 53 -190
138 -240 52 -31 88 -37 211 -39 101 -1 195 19 203 43 2 6 9 11 15 11 19 1 64
52 90 101 18 33 24 61 24 113 1 66 2 69 41 105 59 55 85 113 88 194 3 66 4 70
44 108 76 73 105 189 73 291 -20 60 -85 132 -148 163 -45 22 -47 24 -20 23 87
-3 180 57 211 138 9 24 23 44 30 44 19 0 53 19 87 50 30 26 73 100 60 100 -5
1 17 13 47 27 30 15 63 36 73 47 49 58 75 152 49 178 -17 17 -722 20 -743 4
-16 -12 -19 -23 -25 -81 -9 -88 -14 -132 -20 -165 -4 -19 -7 -45 -7 -57 -1
-27 -22 -37 -39 -19 -9 9 -13 46 -12 128 2 105 4 119 24 140 24 25 52 74 57
98 26 131 -66 257 -191 264 -23 2 -48 1 -56 -1z m-249 -420 c1 -21 3 -47 4
-58 2 -11 5 -42 9 -70 3 -27 9 -73 12 -102 3 -29 11 -57 18 -62 6 -5 34 -11
61 -13 49 -3 50 -3 52 -38 1 -19 -3 -37 -7 -40 -5 -3 -81 -5 -169 -4 -151 1
-162 2 -195 25 -19 13 -32 27 -30 31 3 4 0 8 -5 8 -6 0 -11 4 -11 10 0 5 45
11 102 12 100 3 101 3 104 28 5 55 5 55 -138 55 -146 0 -191 10 -221 51 -11
14 -17 27 -15 30 4 3 61 5 108 3 8 0 61 1 117 2 95 1 101 3 105 23 2 11 2 30
0 41 -3 19 -10 20 -219 20 -162 0 -218 4 -221 13 -2 6 -10 12 -17 12 -11 0
-45 41 -45 55 0 3 135 5 300 5 l300 0 1 -37z m1170 20 c-11 -22 -52 -56 -72
-62 -8 -2 -106 -5 -219 -5 l-205 -1 0 -40 0 -40 164 -2 c90 -2 166 -5 168 -7
7 -6 -66 -76 -80 -77 -7 -1 -24 -2 -39 -3 -16 -2 -28 2 -28 8 0 7 -3 8 -8 1
-4 -6 -29 -11 -57 -11 -27 0 -53 5 -57 11 -5 7 -8 7 -8 0 0 -6 -15 -10 -32 -9
-58 3 -75 -9 -70 -50 l4 -35 97 -3 c110 -3 123 -16 58 -57 -36 -24 -46 -25
-202 -26 -128 -1 -165 2 -166 12 -1 7 -1 22 -1 33 0 33 2 40 10 39 23 -4 89 3
100 10 8 5 15 20 15 35 1 14 4 26 7 26 3 0 6 15 7 33 1 37 11 141 14 145 2 3
6 37 8 67 l1 25 300 0 c283 0 300 -1 291 -17z m-935 -598 c16 -22 6 -54 -20
-60 -11 -2 -83 -6 -158 -7 -129 -3 -138 -4 -162 -27 -14 -13 -29 -39 -32 -58
-7 -36 10 -89 32 -101 9 -5 5 -16 -16 -42 l-29 -35 -19 21 c-45 48 -66 131
-50 194 16 63 96 125 164 129 27 1 49 3 50 4 2 1 53 1 116 0 90 -2 115 -5 124
-18z m422 10 c146 -35 190 -236 73 -330 -53 -42 -61 -43 -366 -45 -182 0 -305
-5 -319 -11 -56 -26 -73 -127 -28 -171 19 -20 19 -20 -11 -51 l-30 -31 -27 32
c-63 76 -59 190 9 257 58 57 63 58 396 60 154 0 289 4 300 8 44 16 72 86 54
133 -23 62 -52 72 -214 73 -121 1 -142 3 -153 18 -17 23 -12 45 14 58 22 11
257 11 302 0z m-664 -167 c-5 -7 -3 -8 6 -3 7 4 46 8 86 9 69 1 73 0 72 -20
-2 -21 -7 -22 -102 -20 -86 1 -101 4 -104 18 -2 11 5 18 20 21 13 2 24 5 26 6
2 0 0 -4 -4 -11z m466 -1 c0 10 143 8 159 -1 6 -4 11 -12 11 -17 0 -12 -43
-29 -50 -20 -8 10 -50 9 -50 -1 0 -5 -5 -6 -12 -2 -6 4 -31 9 -55 11 -23 1
-43 5 -43 8 0 3 0 12 0 20 0 13 4 14 20 5 11 -6 20 -7 20 -3z m-308 -296 c4
-1 6 -9 5 -20 -1 -15 -9 -19 -38 -19 -44 -1 -62 24 -26 37 12 5 29 7 37 5 8
-1 18 -3 22 -3z m336 0 c18 -1 14 -29 -5 -35 -15 -4 -60 -2 -71 3 -1 0 2 9 7
19 6 12 19 18 33 16 13 -1 29 -3 36 -3z m186 -6 c11 -28 -24 -115 -60 -149
-50 -47 -88 -55 -261 -55 -188 0 -219 -12 -233 -91 -6 -32 -3 -47 16 -77 13
-21 24 -34 24 -30 0 4 10 2 22 -4 12 -6 63 -12 114 -13 101 -2 129 -14 118
-50 -4 -12 -9 -23 -11 -26 -2 -3 -53 -5 -112 -6 -93 -1 -115 2 -152 21 -141
70 -139 267 2 341 28 14 63 18 205 19 151 1 174 4 197 21 24 18 40 50 42 83 1
26 79 40 89 16z m-133 -296 c5 -37 3 -57 -8 -75 -7 -11 -11 -23 -8 -26 3 -3
-1 -10 -8 -16 -11 -9 -19 -5 -37 20 -24 32 -29 86 -11 98 15 9 71 8 72 -1z"/>
</g>
</svg>
